<?xml version="1.0" encoding="iso-8859-1"?>
<!-- Generator: Adobe Illustrator 19.0.0, SVG Export Plug-In . SVG Version: 6.00 Build 0)  -->
<svg version="1.1" id="Capa_1" xmlns="http://www.w3.org/2000/svg" xmlns:xlink="http://www.w3.org/1999/xlink" x="0px" y="0px"
	 viewBox="0 0 512 512" style="enable-background:new 0 0 512 512;" xml:space="preserve">
<polygon style="fill:#686C83;" points="409.526,502 102.473,502 127.548,428.002 384.451,428.002 "/>
<path style="fill:#FF5D5D;" d="M372.997,428.002H139.003v-155.01c0-64.615,52.382-116.997,116.997-116.997l0,0
	c64.615,0,116.997,52.382,116.997,116.997V428.002z"/>
<g>
	<path style="fill:#FFFFFF;" d="M256,307.006L256,307.006c-11.046,0-19.999-8.954-19.999-19.999v-47.999
		c0-11.046,8.954-19.999,19.999-19.999l0,0c11.046,0,19.999,8.954,19.999,19.999v47.999
		C275.999,298.051,267.046,307.006,256,307.006z"/>
	<path style="fill:#FFFFFF;" d="M256,387.003L256,387.003c-11.046,0-19.999-8.954-19.999-19.999l0,0
		c0-11.046,8.954-19.999,19.999-19.999l0,0c11.046,0,19.999,8.954,19.999,19.999l0,0C275.999,378.049,267.046,387.003,256,387.003z"
		/>
</g>
<path d="M393.922,424.793c-1.375-4.06-5.185-6.791-9.471-6.791h-1.455v-145.01c0-70.026-56.97-126.997-126.997-126.997
	s-126.997,56.97-126.997,126.997v145.01h-1.455c-4.286,0-8.096,2.731-9.471,6.791l-25.074,73.998
	c-1.035,3.053-0.534,6.416,1.344,9.036c1.878,2.619,4.903,4.173,8.127,4.173h307.053c3.224,0,6.249-1.554,8.127-4.173
	c1.878-2.62,2.379-5.983,1.344-9.036L393.922,424.793z M149.003,272.993c0-58.998,47.999-106.997,106.997-106.997
	s106.997,47.999,106.997,106.997v145.01H149.003L149.003,272.993L149.003,272.993z M116.421,492.001l18.298-53.999h242.563
	l18.297,53.999H116.421z"/>
<path d="M256,79.999c5.522,0,10-4.478,10-10V10c0-5.522-4.478-10-10-10c-5.522,0-10,4.478-10,10v59.999
	C246,75.521,250.477,79.999,256,79.999z"/>
<path d="M256,118.954c2.63,0,5.21-1.061,7.069-2.92c1.86-1.87,2.931-4.44,2.931-7.07c0-2.641-1.07-5.21-2.931-7.08
	c-1.859-1.86-4.439-2.92-7.069-2.92c-2.63,0-5.21,1.06-7.07,2.92c-1.86,1.87-2.93,4.439-2.93,7.08c0,2.63,1.069,5.2,2.93,7.07
	C250.79,117.893,253.37,118.954,256,118.954z"/>
<path d="M105.504,277.659c0-5.522-4.478-10-10-10H49.587c-5.522,0-10,4.478-10,10s4.478,10,10,10h45.918
	C101.026,287.659,105.504,283.181,105.504,277.659z"/>
<path d="M10.007,267.66c-2.63,0-5.21,1.069-7.07,2.93s-2.93,4.44-2.93,7.07c0,2.63,1.069,5.21,2.93,7.069
	c1.86,1.86,4.44,2.931,7.07,2.931s5.21-1.07,7.069-2.931c1.86-1.859,2.931-4.439,2.931-7.069c0-2.63-1.07-5.21-2.931-7.07
	C15.217,268.729,12.637,267.66,10.007,267.66z"/>
<path d="M170.195,96.641c1.596,3.851,5.319,6.176,9.243,6.176c1.275,0,2.571-0.246,3.823-0.764
	c5.103-2.114,7.525-7.964,5.412-13.066l-13.554-32.721c-2.114-5.102-7.963-7.521-13.066-5.412
	c-5.103,2.114-7.525,7.964-5.412,13.066L170.195,96.641z"/>
<path d="M71.15,211.096c3.924,0,7.647-2.325,9.243-6.176c2.113-5.103-0.31-10.952-5.412-13.066L42.26,178.301
	c-5.104-2.108-10.952,0.311-13.066,5.412c-2.113,5.103,0.31,10.952,5.412,13.066l32.721,13.554
	C68.579,210.849,69.875,211.096,71.15,211.096z"/>
<path d="M466.58,267.66h-45.918c-5.522,0-10,4.478-10,10s4.478,10,10,10h45.918c5.522,0,10-4.478,10-10
	S472.102,267.66,466.58,267.66z"/>
<path d="M509.062,270.59c-1.859-1.86-4.439-2.93-7.069-2.93c-2.63,0-5.21,1.069-7.07,2.93c-1.86,1.861-2.93,4.44-2.93,7.07
	c0,2.63,1.069,5.21,2.93,7.069c1.86,1.86,4.44,2.931,7.07,2.931c2.63,0,5.21-1.07,7.069-2.931c1.86-1.859,2.931-4.439,2.931-7.069
	C511.993,275.029,510.923,272.45,509.062,270.59z"/>
<path d="M397.474,146.184c2.56,0,5.118-0.977,7.071-2.929l49.203-49.204c3.905-3.905,3.905-10.237,0-14.143
	c-3.906-3.904-10.236-3.904-14.143,0l-49.203,49.204c-3.905,3.905-3.905,10.237,0,14.143
	C392.356,145.208,394.915,146.184,397.474,146.184z"/>
<path d="M107.454,143.256c1.953,1.952,4.512,2.929,7.071,2.929c2.559,0,5.118-0.977,7.071-2.929c3.905-3.905,3.905-10.237,0-14.143
	L72.393,79.911c-3.906-3.904-10.236-3.904-14.143,0c-3.905,3.905-3.905,10.237,0,14.143L107.454,143.256z"/>
<path d="M328.738,102.053c1.252,0.518,2.548,0.764,3.823,0.764c3.924,0,7.647-2.325,9.243-6.176l13.554-32.721
	c2.113-5.103-0.31-10.952-5.412-13.066c-5.103-2.108-10.952,0.311-13.066,5.412l-13.554,32.721
	C321.213,94.089,323.636,99.938,328.738,102.053z"/>
<path d="M469.739,178.301l-32.721,13.554c-5.103,2.114-7.525,7.964-5.412,13.066c1.596,3.851,5.319,6.176,9.243,6.176
	c1.275,0,2.571-0.246,3.823-0.764l32.721-13.554c5.103-2.114,7.525-7.964,5.412-13.066
	C480.691,178.61,474.842,176.191,469.739,178.301z"/>
<path d="M256,209.008c-16.542,0-29.999,13.458-29.999,29.999v47.999c0,16.542,13.458,29.999,29.999,29.999
	s29.999-13.458,29.999-29.999v-47.999C285.999,222.466,272.542,209.008,256,209.008z M266,287.006c0,5.514-4.486,10-10,10
	c-5.514,0-10-4.486-10-10v-47.999c0-5.514,4.486-10,10-10c5.514,0,10,4.486,10,10V287.006z"/>
<path d="M256,337.005c-16.542,0-29.999,13.458-29.999,29.999c0,16.542,13.458,29.999,29.999,29.999s29.999-13.458,29.999-29.999
	C285.999,350.462,272.542,337.005,256,337.005z M256,377.004c-5.514,0-10-4.486-10-10s4.486-10,10-10c5.514,0,10,4.486,10,10
	S261.514,377.004,256,377.004z"/>
<g>
</g>
<g>
</g>
<g>
</g>
<g>
</g>
<g>
</g>
<g>
</g>
<g>
</g>
<g>
</g>
<g>
</g>
<g>
</g>
<g>
</g>
<g>
</g>
<g>
</g>
<g>
</g>
<g>
</g>
</svg>
